ffmpeg started on 2026-01-20 at 18:38:55
Report written to "D:\Convert\FFMetrics\reports\ssim_report-6.txt"
Log level: 32
Command line:
ffmpeg -hide_banner -nostdin -r 24000/1001 -i "F:\\Convert\\files\\[DC] Make Heroine ga Oosugiru - 07_Telegram_HEVC(213).mkv" -r 24000/1001 -i "F:\\Convert\\files\\[DC] Make Heroine ga Oosugiru - 07_Telegram.mp4" -lavfi "[0:v]settb=AVTB,setpts=PTS-STARTPTS,format=pix_fmts=yuv420p10le,fps=24000/1001,scale=1920:1080:flags=lanczos:param0=3:out_range=limited:out_color_matrix=bt709:out_chroma_loc=left,setsar=1/1,setdar=(1920/1080)*(1/1),colorspace=format=yuv420p10:range=tv:primaries=bt709:trc=bt709:space=bt709:fast=0[main];[1:v]settb=AVTB,setpts=PTS-STARTPTS,format=pix_fmts=yuv420p,fps=24000/1001,scale=1920:1080:flags=lanczos:param0=3:out_range=limited:out_color_matrix=bt709:out_chroma_loc=left,setsar=1.000,setdar=1.778,colorspace=format=yuv420p:range=tv:primaries=bt709:trc=bt709:space=bt709:fast=0[ref];[main][ref]ssim=eof_action=endall:stats_file='D\\:/Convert/FFMetrics/logs/ssim_logfile-6.txt'" -f null -
Input #0, matroska,webm, from 'F:\Convert\files\[DC] Make Heroine ga Oosugiru - 07_Telegram_HEVC(213).mkv':
  Metadata:
    COMPATIBLE_BRANDS: isomiso2avc1mp41
    MAJOR_BRAND     : isom
    MINOR_VERSION   : 512
    ENCODER         : Lavf61.7.100
  Duration: 00:24:06.79, start: -0.021000, bitrate: 893 kb/s
  Stream #0:0: Video: hevc (Main 10), yuv420p10le(tv, bt709, progressive), 1920x1080 [SAR 1:1 DAR 16:9], 23.98 fps, 23.98 tbr, 1k tbn (default)
      Metadata:
        HANDLER_NAME    : VideoHandler
        VENDOR_ID       : [0][0][0][0]
        ENCODER         : Lavc61.19.100 libx265
        BPS             : 696301
        DURATION        : 00:24:06.569708333
        NUMBER_OF_FRAMES: 34683
        NUMBER_OF_BYTES : 125906021
        _STATISTICS_WRITING_APP: mkvpropedit v94.0 ('Initiate') 64-bit
        _STATISTICS_WRITING_DATE_UTC: 2026-01-20 13:45:41
        _STATISTICS_TAGS: BPS DURATION NUMBER_OF_FRAMES NUMBER_OF_BYTES
  Stream #0:1: Audio: aac (LC), 48000 Hz, stereo, fltp (default)
      Metadata:
        HANDLER_NAME    : SoundHandler
        VENDOR_ID       : [0][0][0][0]
        ENCODER         : Lavc61.19.100 aac
        BPS             : 193194
        DURATION        : 00:24:06.784000000
        NUMBER_OF_FRAMES: 67819
        NUMBER_OF_BYTES : 34938755
        _STATISTICS_WRITING_APP: mkvpropedit v94.0 ('Initiate') 64-bit
        _STATISTICS_WRITING_DATE_UTC: 2026-01-20 13:45:41
        _STATISTICS_TAGS: BPS DURATION NUMBER_OF_FRAMES NUMBER_OF_BYTES
Input #1, mov,mp4,m4a,3gp,3g2,mj2, from 'F:\Convert\files\[DC] Make Heroine ga Oosugiru - 07_Telegram.mp4':
  Metadata:
    major_brand     : isom
    minor_version   : 512
    compatible_brands: isomiso2avc1mp41
    encoder         : Lavf60.16.100
  Duration: 00:24:06.74, start: 0.000000, bitrate: 3764 kb/s
  Stream #1:0[0x1](und): Video: h264 (High) (avc1 / 0x31637661), yuv420p(tv, bt709, progressive), 1920x1080 [SAR 1:1 DAR 16:9], 3616 kb/s, 23.98 fps, 23.98 tbr, 24k tbn (default)
      Metadata:
        handler_name    : VideoHandler
        vendor_id       : [0][0][0][0]
        encoder         : Lavc60.31.102 h264_qsv
  Stream #1:1[0x2](und): Audio: aac (HE-AACv2) (mp4a / 0x6134706D), 48000 Hz, stereo, fltp, 144 kb/s (default)
      Metadata:
        handler_name    : SoundHandler
        vendor_id       : [0][0][0][0]
Stream mapping:
  Stream #0:0 (hevc) -> settb:default
  Stream #1:0 (h264) -> settb:default
  ssim:default -> Stream #0:0 (wrapped_avframe)
  Stream #0:1 -> #0:1 (aac (native) -> pcm_s16le (native))
Output #0, null, to 'pipe:':
  Metadata:
    COMPATIBLE_BRANDS: isomiso2avc1mp41
    MAJOR_BRAND     : isom
    MINOR_VERSION   : 512
    encoder         : Lavf61.7.100
  Stream #0:0: Video: wrapped_avframe, yuv420p10le(tv, bt709, progressive), 1920x1080 [SAR 1:1 DAR 16:9], q=2-31, 200 kb/s, 23.98 fps, 23.98 tbn
      Metadata:
        encoder         : Lavc61.19.100 wrapped_avframe
  Stream #0:1: Audio: pcm_s16le, 48000 Hz, stereo, s16, 1536 kb/s (default)
      Metadata:
        HANDLER_NAME    : SoundHandler
        VENDOR_ID       : [0][0][0][0]
        _STATISTICS_TAGS: BPS DURATION NUMBER_OF_FRAMES NUMBER_OF_BYTES
        BPS             : 193194
        DURATION        : 00:24:06.784000000
        NUMBER_OF_FRAMES: 67819
        NUMBER_OF_BYTES : 34938755
        _STATISTICS_WRITING_APP: mkvpropedit v94.0 ('Initiate') 64-bit
        _STATISTICS_WRITING_DATE_UTC: 2026-01-20 13:45:41
        encoder         : Lavc61.19.100 pcm_s16le
frame=  129 fps=0.0 q=-0.0 size=N/A time=00:00:05.38 bitrate=N/A speed=10.3x    frame=  314 fps=304 q=-0.0 size=N/A time=00:00:13.09 bitrate=N/A speed=12.7x    frame=  506 fps=325 q=-0.0 size=N/A time=00:00:21.10 bitrate=N/A speed=13.6x    frame=  689 fps=333 q=-0.0 size=N/A time=00:00:28.73 bitrate=N/A speed=13.9x    frame=  877 fps=340 q=-0.0 size=N/A time=00:00:36.57 bitrate=N/A speed=14.2x    frame= 1022 fps=329 q=-0.0 size=N/A time=00:00:42.62 bitrate=N/A speed=13.7x    frame= 1187 fps=328 q=-0.0 size=N/A time=00:00:49.50 bitrate=N/A speed=13.7x    frame= 1350 fps=327 q=-0.0 size=N/A time=00:00:56.30 bitrate=N/A speed=13.6x    frame= 1512 fps=326 q=-0.0 size=N/A time=00:01:03.06 bitrate=N/A speed=13.6x    frame= 1658 fps=321 q=-0.0 size=N/A time=00:01:09.15 bitrate=N/A speed=13.4x    frame= 1823 fps=321 q=-0.0 size=N/A time=00:01:16.03 bitrate=N/A speed=13.4x    frame= 1993 fps=322 q=-0.0 size=N/A time=00:01:23.12 bitrate=N/A speed=13.4x    frame= 2107 fps=314 q=-0.0 size=N/A time=00:01:27.87 bitrate=N/A speed=13.1x    frame= 2270 fps=314 q=-0.0 size=N/A time=00:01:34.67 bitrate=N/A speed=13.1x    frame= 2420 fps=313 q=-0.0 size=N/A time=00:01:40.93 bitrate=N/A speed=  13x    frame= 2555 fps=310 q=-0.0 size=N/A time=00:01:46.56 bitrate=N/A speed=12.9x    frame= 2722 fps=311 q=-0.0 size=N/A time=00:01:53.53 bitrate=N/A speed=  13x    frame= 2907 fps=313 q=-0.0 size=N/A time=00:02:01.24 bitrate=N/A speed=13.1x    frame= 3078 fps=314 q=-0.0 size=N/A time=00:02:08.37 bitrate=N/A speed=13.1x    frame= 3269 fps=317 q=-0.0 size=N/A time=00:02:16.34 bitrate=N/A speed=13.2x    frame= 3455 fps=319 q=-0.0 size=N/A time=00:02:24.10 bitrate=N/A speed=13.3x    frame= 3637 fps=321 q=-0.0 size=N/A time=00:02:31.69 bitrate=N/A speed=13.4x    frame= 3832 fps=323 q=-0.0 size=N/A time=00:02:39.82 bitrate=N/A speed=13.5x    frame= 4015 fps=324 q=-0.0 size=N/A time=00:02:47.45 bitrate=N/A speed=13.5x    frame= 4200 fps=326 q=-0.0 size=N/A time=00:02:55.17 bitrate=N/A speed=13.6x    frame= 4388 fps=327 q=-0.0 size=N/A time=00:03:03.01 bitrate=N/A speed=13.6x    frame= 4570 fps=328 q=-0.0 size=N/A time=00:03:10.60 bitrate=N/A speed=13.7x    frame= 4748 fps=329 q=-0.0 size=N/A time=00:03:18.03 bitrate=N/A speed=13.7x    frame= 4941 fps=330 q=-0.0 size=N/A time=00:03:26.08 bitrate=N/A speed=13.8x    frame= 5130 fps=331 q=-0.0 size=N/A time=00:03:33.96 bitrate=N/A speed=13.8x    frame= 5311 fps=332 q=-0.0 size=N/A time=00:03:41.51 bitrate=N/A speed=13.9x    frame= 5494 fps=333 q=-0.0 size=N/A time=00:03:49.14 bitrate=N/A speed=13.9x    frame= 5685 fps=334 q=-0.0 size=N/A time=00:03:57.11 bitrate=N/A speed=13.9x    frame= 5875 fps=335 q=-0.0 size=N/A time=00:04:05.03 bitrate=N/A speed=  14x    frame= 6060 fps=336 q=-0.0 size=N/A time=00:04:12.75 bitrate=N/A speed=  14x    frame= 6242 fps=336 q=-0.0 size=N/A time=00:04:20.34 bitrate=N/A speed=  14x    frame= 6428 fps=337 q=-0.0 size=N/A time=00:04:28.10 bitrate=N/A speed=14.1x    frame= 6624 fps=338 q=-0.0 size=N/A time=00:04:36.27 bitrate=N/A speed=14.1x    frame= 6809 fps=339 q=-0.0 size=N/A time=00:04:43.99 bitrate=N/A speed=14.1x    frame= 6993 fps=339 q=-0.0 size=N/A time=00:04:51.66 bitrate=N/A speed=14.1x    frame= 7168 fps=339 q=-0.0 size=N/A time=00:04:58.96 bitrate=N/A speed=14.1x    frame= 7362 fps=340 q=-0.0 size=N/A time=00:05:07.05 bitrate=N/A speed=14.2x    frame= 7539 fps=340 q=-0.0 size=N/A time=00:05:14.43 bitrate=N/A speed=14.2x    frame= 7721 fps=340 q=-0.0 size=N/A time=00:05:22.03 bitrate=N/A speed=14.2x    frame= 7905 fps=341 q=-0.0 size=N/A time=00:05:29.70 bitrate=N/A speed=14.2x    frame= 8088 fps=341 q=-0.0 size=N/A time=00:05:37.33 bitrate=N/A speed=14.2x    frame= 8268 fps=341 q=-0.0 size=N/A time=00:05:44.84 bitrate=N/A speed=14.2x    frame= 8458 fps=342 q=-0.0 size=N/A time=00:05:52.76 bitrate=N/A speed=14.3x    frame= 8643 fps=342 q=-0.0 size=N/A time=00:06:00.48 bitrate=N/A speed=14.3x    frame= 8826 fps=342 q=-0.0 size=N/A time=00:06:08.11 bitrate=N/A speed=14.3x    frame= 9007 fps=342 q=-0.0 size=N/A time=00:06:15.66 bitrate=N/A speed=14.3x    frame= 9187 fps=343 q=-0.0 size=N/A time=00:06:23.17 bitrate=N/A speed=14.3x    frame= 9381 fps=343 q=-0.0 size=N/A time=00:06:31.26 bitrate=N/A speed=14.3x    frame= 9565 fps=343 q=-0.0 size=N/A time=00:06:38.94 bitrate=N/A speed=14.3x    frame= 9753 fps=344 q=-0.0 size=N/A time=00:06:46.78 bitrate=N/A speed=14.3x    frame= 9934 fps=344 q=-0.0 size=N/A time=00:06:54.33 bitrate=N/A speed=14.4x    frame=10126 fps=344 q=-0.0 size=N/A time=00:07:02.33 bitrate=N/A speed=14.4x    frame=10310 fps=345 q=-0.0 size=N/A time=00:07:10.01 bitrate=N/A speed=14.4x    frame=10490 fps=345 q=-0.0 size=N/A time=00:07:17.52 bitrate=N/A speed=14.4x    frame=10678 fps=345 q=-0.0 size=N/A time=00:07:25.36 bitrate=N/A speed=14.4x    frame=10861 fps=345 q=-0.0 size=N/A time=00:07:32.99 bitrate=N/A speed=14.4x    frame=11043 fps=345 q=-0.0 size=N/A time=00:07:40.58 bitrate=N/A speed=14.4x    frame=11217 fps=345 q=-0.0 size=N/A time=00:07:47.84 bitrate=N/A speed=14.4x    frame=11408 fps=346 q=-0.0 size=N/A time=00:07:55.80 bitrate=N/A speed=14.4x    frame=11593 fps=346 q=-0.0 size=N/A time=00:08:03.52 bitrate=N/A speed=14.4x    frame=11774 fps=346 q=-0.0 size=N/A time=00:08:11.07 bitrate=N/A speed=14.4x    frame=11964 fps=346 q=-0.0 size=N/A time=00:08:18.99 bitrate=N/A speed=14.4x    frame=12148 fps=346 q=-0.0 size=N/A time=00:08:26.67 bitrate=N/A speed=14.4x    frame=12335 fps=347 q=-0.0 size=N/A time=00:08:34.47 bitrate=N/A speed=14.5x    frame=12520 fps=347 q=-0.0 size=N/A time=00:08:42.18 bitrate=N/A speed=14.5x    frame=12703 fps=347 q=-0.0 size=N/A time=00:08:49.82 bitrate=N/A speed=14.5x    frame=12885 fps=347 q=-0.0 size=N/A time=00:08:57.41 bitrate=N/A speed=14.5x    frame=13079 fps=347 q=-0.0 size=N/A time=00:09:05.50 bitrate=N/A speed=14.5x    frame=13255 fps=347 q=-0.0 size=N/A time=00:09:12.84 bitrate=N/A speed=14.5x    frame=13443 fps=348 q=-0.0 size=N/A time=00:09:20.68 bitrate=N/A speed=14.5x    frame=13626 fps=348 q=-0.0 size=N/A time=00:09:28.31 bitrate=N/A speed=14.5x    frame=13811 fps=348 q=-0.0 size=N/A time=00:09:36.03 bitrate=N/A speed=14.5x    frame=13992 fps=348 q=-0.0 size=N/A time=00:09:43.58 bitrate=N/A speed=14.5x    frame=14173 fps=348 q=-0.0 size=N/A time=00:09:51.13 bitrate=N/A speed=14.5x    frame=14357 fps=348 q=-0.0 size=N/A time=00:09:58.80 bitrate=N/A speed=14.5x    frame=14538 fps=348 q=-0.0 size=N/A time=00:10:06.35 bitrate=N/A speed=14.5x    frame=14720 fps=348 q=-0.0 size=N/A time=00:10:13.94 bitrate=N/A speed=14.5x    frame=14907 fps=348 q=-0.0 size=N/A time=00:10:21.74 bitrate=N/A speed=14.5x    frame=15084 fps=348 q=-0.0 size=N/A time=00:10:29.12 bitrate=N/A speed=14.5x    frame=15254 fps=348 q=-0.0 size=N/A time=00:10:36.21 bitrate=N/A speed=14.5x    frame=15435 fps=348 q=-0.0 size=N/A time=00:10:43.76 bitrate=N/A speed=14.5x    frame=15625 fps=348 q=-0.0 size=N/A time=00:10:51.69 bitrate=N/A speed=14.5x    frame=15808 fps=348 q=-0.0 size=N/A time=00:10:59.32 bitrate=N/A speed=14.5x    frame=15995 fps=349 q=-0.0 size=N/A time=00:11:07.12 bitrate=N/A speed=14.5x    frame=16178 fps=349 q=-0.0 size=N/A time=00:11:14.75 bitrate=N/A speed=14.5x    frame=16369 fps=349 q=-0.0 size=N/A time=00:11:22.72 bitrate=N/A speed=14.5x    frame=16541 fps=349 q=-0.0 size=N/A time=00:11:29.89 bitrate=N/A speed=14.5x    frame=16727 fps=349 q=-0.0 size=N/A time=00:11:37.65 bitrate=N/A speed=14.5x    frame=16917 fps=349 q=-0.0 size=N/A time=00:11:45.57 bitrate=N/A speed=14.6x    frame=17106 fps=349 q=-0.0 size=N/A time=00:11:53.46 bitrate=N/A speed=14.6x    frame=17287 fps=349 q=-0.0 size=N/A time=00:12:01.01 bitrate=N/A speed=14.6x    frame=17473 fps=349 q=-0.0 size=N/A time=00:12:08.76 bitrate=N/A speed=14.6x    frame=17657 fps=349 q=-0.0 size=N/A time=00:12:16.44 bitrate=N/A speed=14.6x    frame=17834 fps=349 q=-0.0 size=N/A time=00:12:23.82 bitrate=N/A speed=14.6x    frame=18026 fps=350 q=-0.0 size=N/A time=00:12:31.83 bitrate=N/A speed=14.6x    frame=18206 fps=350 q=-0.0 size=N/A time=00:12:39.34 bitrate=N/A speed=14.6x    frame=18383 fps=350 q=-0.0 size=N/A time=00:12:46.72 bitrate=N/A speed=14.6x    frame=18575 fps=350 q=-0.0 size=N/A time=00:12:54.73 bitrate=N/A speed=14.6x    frame=18763 fps=350 q=-0.0 size=N/A time=00:13:02.57 bitrate=N/A speed=14.6x    frame=18941 fps=350 q=-0.0 size=N/A time=00:13:09.99 bitrate=N/A speed=14.6x    frame=19126 fps=350 q=-0.0 size=N/A time=00:13:17.71 bitrate=N/A speed=14.6x    frame=19313 fps=350 q=-0.0 size=N/A time=00:13:25.51 bitrate=N/A speed=14.6x    frame=19505 fps=350 q=-0.0 size=N/A time=00:13:33.52 bitrate=N/A speed=14.6x    frame=19688 fps=350 q=-0.0 size=N/A time=00:13:41.15 bitrate=N/A speed=14.6x    frame=19873 fps=350 q=-0.0 size=N/A time=00:13:48.86 bitrate=N/A speed=14.6x    frame=20056 fps=350 q=-0.0 size=N/A time=00:13:56.50 bitrate=N/A speed=14.6x    frame=20249 fps=350 q=-0.0 size=N/A time=00:14:04.55 bitrate=N/A speed=14.6x    frame=20428 fps=350 q=-0.0 size=N/A time=00:14:12.01 bitrate=N/A speed=14.6x    frame=20601 fps=350 q=-0.0 size=N/A time=00:14:19.23 bitrate=N/A speed=14.6x    frame=20783 fps=350 q=-0.0 size=N/A time=00:14:26.82 bitrate=N/A speed=14.6x    frame=20972 fps=350 q=-0.0 size=N/A time=00:14:34.70 bitrate=N/A speed=14.6x    frame=21155 fps=350 q=-0.0 size=N/A time=00:14:42.33 bitrate=N/A speed=14.6x    frame=21339 fps=351 q=-0.0 size=N/A time=00:14:50.01 bitrate=N/A speed=14.6x    frame=21532 fps=351 q=-0.0 size=N/A time=00:14:58.06 bitrate=N/A speed=14.6x    frame=21709 fps=351 q=-0.0 size=N/A time=00:15:05.44 bitrate=N/A speed=14.6x    frame=21897 fps=351 q=-0.0 size=N/A time=00:15:13.28 bitrate=N/A speed=14.6x    frame=22087 fps=351 q=-0.0 size=N/A time=00:15:21.21 bitrate=N/A speed=14.6x    frame=22272 fps=351 q=-0.0 size=N/A time=00:15:28.92 bitrate=N/A speed=14.6x    frame=22459 fps=351 q=-0.0 size=N/A time=00:15:36.72 bitrate=N/A speed=14.6x    frame=22642 fps=351 q=-0.0 size=N/A time=00:15:44.36 bitrate=N/A speed=14.6x    frame=22822 fps=351 q=-0.0 size=N/A time=00:15:51.86 bitrate=N/A speed=14.6x    frame=23003 fps=351 q=-0.0 size=N/A time=00:15:59.41 bitrate=N/A speed=14.6x    frame=23189 fps=351 q=-0.0 size=N/A time=00:16:07.17 bitrate=N/A speed=14.6x    frame=23376 fps=351 q=-0.0 size=N/A time=00:16:14.97 bitrate=N/A speed=14.6x    frame=23563 fps=351 q=-0.0 size=N/A time=00:16:22.77 bitrate=N/A speed=14.7x    frame=23748 fps=351 q=-0.0 size=N/A time=00:16:30.48 bitrate=N/A speed=14.7x    frame=23931 fps=351 q=-0.0 size=N/A time=00:16:38.12 bitrate=N/A speed=14.7x    frame=24121 fps=352 q=-0.0 size=N/A time=00:16:46.04 bitrate=N/A speed=14.7x    frame=24303 fps=352 q=-0.0 size=N/A time=00:16:53.63 bitrate=N/A speed=14.7x    frame=24491 fps=352 q=-0.0 size=N/A time=00:17:01.47 bitrate=N/A speed=14.7x    frame=24676 fps=352 q=-0.0 size=N/A time=00:17:09.19 bitrate=N/A speed=14.7x    frame=24862 fps=352 q=-0.0 size=N/A time=00:17:16.95 bitrate=N/A speed=14.7x    frame=25048 fps=352 q=-0.0 size=N/A time=00:17:24.71 bitrate=N/A speed=14.7x    frame=25236 fps=352 q=-0.0 size=N/A time=00:17:32.55 bitrate=N/A speed=14.7x    frame=25427 fps=352 q=-0.0 size=N/A time=00:17:40.51 bitrate=N/A speed=14.7x    frame=25607 fps=352 q=-0.0 size=N/A time=00:17:48.02 bitrate=N/A speed=14.7x    frame=25793 fps=352 q=-0.0 size=N/A time=00:17:55.78 bitrate=N/A speed=14.7x    frame=25983 fps=352 q=-0.0 size=N/A time=00:18:03.70 bitrate=N/A speed=14.7x    frame=26166 fps=352 q=-0.0 size=N/A time=00:18:11.34 bitrate=N/A speed=14.7x    frame=26346 fps=352 q=-0.0 size=N/A time=00:18:18.84 bitrate=N/A speed=14.7x    frame=26536 fps=352 q=-0.0 size=N/A time=00:18:26.77 bitrate=N/A speed=14.7x    frame=26718 fps=352 q=-0.0 size=N/A time=00:18:34.36 bitrate=N/A speed=14.7x    frame=26896 fps=352 q=-0.0 size=N/A time=00:18:41.78 bitrate=N/A speed=14.7x    frame=27081 fps=352 q=-0.0 size=N/A time=00:18:49.50 bitrate=N/A speed=14.7x    frame=27261 fps=352 q=-0.0 size=N/A time=00:18:57.01 bitrate=N/A speed=14.7x    frame=27442 fps=352 q=-0.0 size=N/A time=00:19:04.56 bitrate=N/A speed=14.7x    frame=27629 fps=352 q=-0.0 size=N/A time=00:19:12.35 bitrate=N/A speed=14.7x    frame=27811 fps=352 q=-0.0 size=N/A time=00:19:19.95 bitrate=N/A speed=14.7x    frame=27992 fps=352 q=-0.0 size=N/A time=00:19:27.49 bitrate=N/A speed=14.7x    frame=28182 fps=352 q=-0.0 size=N/A time=00:19:35.42 bitrate=N/A speed=14.7x    frame=28361 fps=352 q=-0.0 size=N/A time=00:19:42.89 bitrate=N/A speed=14.7x    frame=28546 fps=352 q=-0.0 size=N/A time=00:19:50.60 bitrate=N/A speed=14.7x    frame=28723 fps=352 q=-0.0 size=N/A time=00:19:57.98 bitrate=N/A speed=14.7x    frame=28897 fps=352 q=-0.0 size=N/A time=00:20:05.24 bitrate=N/A speed=14.7x    frame=29065 fps=352 q=-0.0 size=N/A time=00:20:12.25 bitrate=N/A speed=14.7x    frame=29244 fps=352 q=-0.0 size=N/A time=00:20:19.71 bitrate=N/A speed=14.7x    frame=29429 fps=352 q=-0.0 size=N/A time=00:20:27.43 bitrate=N/A speed=14.7x    frame=29599 fps=352 q=-0.0 size=N/A time=00:20:34.52 bitrate=N/A speed=14.7x    frame=29773 fps=352 q=-0.0 size=N/A time=00:20:41.78 bitrate=N/A speed=14.7x    frame=29951 fps=352 q=-0.0 size=N/A time=00:20:49.20 bitrate=N/A speed=14.7x    frame=30124 fps=352 q=-0.0 size=N/A time=00:20:56.42 bitrate=N/A speed=14.7x    frame=30302 fps=352 q=-0.0 size=N/A time=00:21:03.84 bitrate=N/A speed=14.7x    frame=30490 fps=352 q=-0.0 size=N/A time=00:21:11.68 bitrate=N/A speed=14.7x    frame=30677 fps=352 q=-0.0 size=N/A time=00:21:19.48 bitrate=N/A speed=14.7x    frame=30859 fps=352 q=-0.0 size=N/A time=00:21:27.07 bitrate=N/A speed=14.7x    frame=31038 fps=352 q=-0.0 size=N/A time=00:21:34.54 bitrate=N/A speed=14.7x    frame=31223 fps=352 q=-0.0 size=N/A time=00:21:42.25 bitrate=N/A speed=14.7x    frame=31408 fps=352 q=-0.0 size=N/A time=00:21:49.97 bitrate=N/A speed=14.7x    frame=31591 fps=352 q=-0.0 size=N/A time=00:21:57.60 bitrate=N/A speed=14.7x    frame=31774 fps=352 q=-0.0 size=N/A time=00:22:05.24 bitrate=N/A speed=14.7x    frame=31947 fps=352 q=-0.0 size=N/A time=00:22:12.45 bitrate=N/A speed=14.7x    frame=32130 fps=352 q=-0.0 size=N/A time=00:22:20.08 bitrate=N/A speed=14.7x    frame=32312 fps=352 q=-0.0 size=N/A time=00:22:27.67 bitrate=N/A speed=14.7x    frame=32493 fps=352 q=-0.0 size=N/A time=00:22:35.22 bitrate=N/A speed=14.7x    frame=32663 fps=352 q=-0.0 size=N/A time=00:22:42.31 bitrate=N/A speed=14.7x    frame=32828 fps=351 q=-0.0 size=N/A time=00:22:49.20 bitrate=N/A speed=14.7x    frame=32992 fps=351 q=-0.0 size=N/A time=00:22:56.04 bitrate=N/A speed=14.7x    frame=33172 fps=351 q=-0.0 size=N/A time=00:23:03.54 bitrate=N/A speed=14.7x    frame=33347 fps=351 q=-0.0 size=N/A time=00:23:10.84 bitrate=N/A speed=14.6x    frame=33514 fps=351 q=-0.0 size=N/A time=00:23:17.81 bitrate=N/A speed=14.6x    frame=33672 fps=351 q=-0.0 size=N/A time=00:23:24.40 bitrate=N/A speed=14.6x    frame=33810 fps=350 q=-0.0 size=N/A time=00:23:30.15 bitrate=N/A speed=14.6x    frame=33951 fps=350 q=-0.0 size=N/A time=00:23:36.03 bitrate=N/A speed=14.6x    frame=34125 fps=350 q=-0.0 size=N/A time=00:23:43.29 bitrate=N/A speed=14.6x    frame=34290 fps=350 q=-0.0 size=N/A time=00:23:50.17 bitrate=N/A speed=14.6x    frame=34421 fps=349 q=-0.0 size=N/A time=00:23:55.64 bitrate=N/A speed=14.6x    frame=34592 fps=349 q=-0.0 size=N/A time=00:24:02.77 bitrate=N/A speed=14.6x    [Parsed_ssim_16 @ 000001eb71175080] SSIM Y:0.993706 (22.010880) U:0.993980 (22.203957) V:0.993609 (21.944393) All:0.993736 (22.031236)
[out#0/null @ 000001eb64078a00] video:14903KiB audio:271276KiB subtitle:0KiB other streams:0KiB global headers:0KiB muxing overhead: unknown
frame=34683 fps=349 q=-0.0 Lsize=N/A time=00:24:06.57 bitrate=N/A speed=14.6x    
